<?xml version="1.0" encoding="UTF-8"?>
<!DOCTYPE svg PUBLIC "-//W3C//DTD SVG 1.1//EN" "http://www.w3.org/Graphics/SVG/1.1/DTD/svg11.dtd">
<svg xmlns="http://www.w3.org/2000/svg" version="1.1" width="1092px" height="173px" style="shape-rendering:geometricPrecision; text-rendering:geometricPrecision; image-rendering:optimizeQuality; fill-rule:evenodd; clip-rule:evenodd" xmlns:xlink="http://www.w3.org/1999/xlink">
<g><path style="opacity:0.997" fill="#302c2b" d="M 962.5,171.5 C 958.935,171.799 957.602,170.465 958.5,167.5C 959.665,115.668 959.832,63.6683 959,11.5C 958.487,12.5266 957.987,13.5266 957.5,14.5C 957.5,15.1667 957.5,15.8333 957.5,16.5C 957.5,16.8333 957.5,17.1667 957.5,17.5C 956.662,17.8417 956.328,18.5084 956.5,19.5C 956.5,19.8333 956.5,20.1667 956.5,20.5C 949.295,36.2475 942.628,52.2475 936.5,68.5C 931.403,70.1148 930.236,68.4481 933,63.5C 933.333,63.8333 933.667,64.1667 934,64.5C 936.216,62.2057 935.716,60.8724 932.5,60.5C 940.391,42.0508 947.725,23.3841 954.5,4.5C 963.5,4.5 972.5,4.5 981.5,4.5C 981.833,59.8373 981.5,115.171 980.5,170.5C 974.561,171.457 968.561,171.79 962.5,171.5 Z"/></g>
<g><path style="opacity:0.999" fill="#302d2c" d="M 256.5,160.5 C 255.189,162.56 255.189,164.726 256.5,167C 285.5,167.333 314.5,167.667 343.5,168C 342.57,168.991 341.404,169.491 340,169.5C 305.068,169.45 270.568,169.45 236.5,169.5C 235.065,168.053 234.065,166.386 233.5,164.5C 233.5,111.167 233.5,57.8333 233.5,4.5C 241.167,4.5 248.833,4.5 256.5,4.5C 256.5,56.5 256.5,108.5 256.5,160.5 Z"/></g>
<g><path style="opacity:0.997" fill="#2e2b2a" d="M 932.5,60.5 C 935.716,60.8724 936.216,62.2057 934,64.5C 933.667,64.1667 933.333,63.8333 933,63.5C 930.236,68.4481 931.403,70.1148 936.5,68.5C 930.941,80.8722 925.774,94.5389 921,109.5C 911.863,128.955 903.363,149.122 895.5,170C 895.743,170.902 896.077,171.735 896.5,172.5C 894.167,172.5 891.833,172.5 889.5,172.5C 889.313,170.436 888.813,168.436 888,166.5C 878.707,146.739 869.541,127.072 860.5,107.5C 860.34,105.847 859.674,104.514 858.5,103.5C 858.672,102.508 858.338,101.842 857.5,101.5C 845.894,74.2851 833.727,47.2851 821,20.5C 820.5,21.6667 819.667,22.5 818.5,23C 818.529,70.4282 818.696,117.928 819,165.5C 819.108,168.637 817.941,170.97 815.5,172.5C 814.833,172.5 814.167,172.5 813.5,172.5C 812.573,165.557 812.24,158.557 812.5,151.5C 813.777,150.306 814.444,148.64 814.5,146.5C 814.235,102.785 814.069,57.4513 814,10.5C 813.722,9.5842 813.222,8.91753 812.5,8.5C 812.5,7.16667 812.5,5.83333 812.5,4.5C 821.857,4.16836 831.19,4.50169 840.5,5.5C 861.121,49.5733 881.621,93.5733 902,137.5C 911.812,111.282 921.979,85.6154 932.5,60.5 Z"/></g>
<g><path style="opacity:1" fill="#302c2c" d="M 1091.5,7.5 C 1091.5,61.8333 1091.5,116.167 1091.5,170.5C 1084.59,171.462 1077.59,171.795 1070.5,171.5C 1069.73,170.828 1069.07,169.995 1068.5,169C 1068.56,114.906 1068.73,60.7391 1069,6.5C 1069.33,6.16667 1069.67,5.83333 1070,5.5C 1077.17,6.18326 1084.33,6.84993 1091.5,7.5 Z"/></g>
<g><path style="opacity:0.372" fill="#272625" d="M 1091.5,5.5 C 1091.5,6.16667 1091.5,6.83333 1091.5,7.5C 1084.33,6.84993 1077.17,6.18326 1070,5.5C 1069.67,5.83333 1069.33,6.16667 1069,6.5C 1068.73,60.7391 1068.56,114.906 1068.5,169C 1069.07,169.995 1069.73,170.828 1070.5,171.5C 1070.5,171.833 1070.5,172.167 1070.5,172.5C 1069.83,172.5 1069.17,172.5 1068.5,172.5C 1067.5,116.572 1067.17,60.5715 1067.5,4.5C 1075.59,4.19947 1083.59,4.53281 1091.5,5.5 Z"/></g>
<g><path style="opacity:0.006" fill="#000000" d="M 958.5,24.5 C 958.5,72.1667 958.5,119.833 958.5,167.5C 957.602,170.465 958.935,171.799 962.5,171.5C 962.5,171.833 962.5,172.167 962.5,172.5C 960.833,172.5 959.167,172.5 957.5,172.5C 957.018,171.584 956.685,170.584 956.5,169.5C 957.157,121.02 957.824,72.6871 958.5,24.5 Z"/></g>
<g><path style="opacity:1" fill="#2f2b2a" d="M 494.5,164.5 C 500.635,163.1 506.301,160.6 511.5,157C 511.167,156.667 510.833,156.333 510.5,156C 517.252,152.748 522.586,147.915 526.5,141.5C 528.599,138.144 530.599,134.644 532.5,131C 532.167,130.667 531.833,130.333 531.5,130C 537.437,127.069 539.27,128.569 537,134.5C 528.394,154.54 513.561,167.207 492.5,172.5C 480.167,172.5 467.833,172.5 455.5,172.5C 413.663,160.728 392.33,132.561 391.5,88C 392.022,46.5939 411.688,18.9272 450.5,5C 468.036,1.13092 485.369,1.79759 502.5,7C 520.068,14.2345 531.735,26.9012 537.5,45C 535.775,47.4732 533.608,47.9732 531,46.5C 521.961,21.7939 504.295,9.12728 478,8.5C 450.965,9.52317 432.965,22.8565 424,48.5C 416.28,72.6373 415.613,96.9706 422,121.5C 432.949,158.384 457.116,172.717 494.5,164.5 Z"/></g>
<g><path style="opacity:0.999" fill="#2f2b2a" d="M 664.5,2.5 C 665.675,2.28099 666.675,2.61432 667.5,3.5C 693.561,58.6982 719.228,114.032 744.5,169.5C 744.291,170.086 743.957,170.586 743.5,171C 735.479,171.832 727.479,171.665 719.5,170.5C 714.809,161.293 710.475,152.459 706.5,144C 702.079,135.328 698.079,126.494 694.5,117.5C 669.5,117.5 644.5,117.5 619.5,117.5C 612.305,135.565 604.805,153.565 597,171.5C 595.026,171.374 592.859,171.208 590.5,171C 590.043,170.586 589.709,170.086 589.5,169.5C 614.195,114.239 639.195,58.5724 664.5,2.5 Z M 690.5,109.5 C 689.778,110.551 688.778,111.218 687.5,111.5C 667.5,111.5 647.5,111.5 627.5,111.5C 623.446,111.79 622.946,111.123 626,109.5C 626.595,108.101 626.428,106.768 625.5,105.5C 625.846,104.304 626.346,104.304 627,105.5C 635.637,82.1999 645.47,59.1999 656.5,36.5C 656.369,35.7611 656.536,35.0944 657,34.5C 668.711,59.2548 679.877,84.2548 690.5,109.5 Z"/></g>
<g><path style="opacity:0.999" fill="#2f2b2a" d="M 129.5,151.5 C 130.239,151.631 130.906,151.464 131.5,151C 128.89,145.222 126.223,139.889 123.5,135C 123.833,134.667 124.167,134.333 124.5,134C 121.237,133.131 120.904,131.797 123.5,130C 121.922,128.906 120.255,128.072 118.5,127.5C 116.644,124.591 114.977,121.591 113.5,118.5C 89.0056,117.502 64.339,117.169 39.5,117.5C 31.6382,135.752 23.9715,154.085 16.5,172.5C 15.1667,172.5 13.8333,172.5 12.5,172.5C 11.3398,171.735 10.3398,170.735 9.5,169.5C 34.7529,113.148 59.4195,57.4812 83.5,2.5C 87.0433,2.872 89.21,4.872 90,8.5C 114.818,62.8046 139.651,117.138 164.5,171.5C 156.14,171.831 147.807,171.498 139.5,170.5C 138.965,168.729 138.131,168.396 137,169.5C 135.462,163.383 132.962,157.383 129.5,151.5 Z M 108.5,111.5 C 86.8333,111.5 65.1667,111.5 43.5,111.5C 43.9297,107.968 45.5963,104.634 48.5,101.5C 48.2907,100.914 47.9574,100.414 47.5,100C 57.7284,77.9713 67.5617,55.8047 77,33.5C 87.9911,58.0815 98.6577,82.0815 109,105.5C 109.374,106.416 109.874,107.25 110.5,108C 109.027,108.71 108.36,109.876 108.5,111.5 Z"/></g>
<g><path style="opacity:0.77" fill="#373433" d="M 812.5,8.5 C 813.222,8.91753 813.722,9.5842 814,10.5C 814.069,57.4513 814.235,102.785 814.5,146.5C 814.444,148.64 813.777,150.306 812.5,151.5C 812.5,103.833 812.5,56.1667 812.5,8.5 Z"/></g>
<g><path style="opacity:0.004" fill="#000000" d="M 857.5,101.5 C 856.833,102.167 856.833,102.167 857.5,101.5 Z"/></g>
<g><path style="opacity:0.004" fill="#000000" d="M 858.5,103.5 C 857.833,104.167 857.833,104.167 858.5,103.5 Z"/></g>
<g><path style="opacity:0.004" fill="#000000" d="M 860.5,107.5 C 859.833,108.167 859.833,108.167 860.5,107.5 Z"/></g>
<g><path style="opacity:0.353" fill="#403b3a" d="M 43.5,111.5 C 65.1667,111.5 86.8333,111.5 108.5,111.5C 109.043,111.56 109.376,111.893 109.5,112.5C 98.5,112.833 87.5,113.167 76.5,113.5C 65.1458,113.499 54.1458,112.832 43.5,111.5 Z"/></g>
<g><path style="opacity:0.954" fill="#423c3c" d="M 627.5,111.5 C 647.5,111.5 667.5,111.5 687.5,111.5C 687.611,112.117 687.944,112.617 688.5,113C 665.833,113.667 643.167,113.667 620.5,113C 623.036,112.814 625.369,112.314 627.5,111.5 Z"/></g>
<g><path style="opacity:0.004" fill="#000000" d="M 40.5,118.5 C 41.8333,119.167 41.8333,119.167 40.5,118.5 Z"/></g>
<g><path style="opacity:0.004" fill="#000000" d="M 113.5,118.5 C 112.833,119.167 112.833,119.167 113.5,118.5 Z"/></g>
<g><path style="opacity:0.006" fill="#000000" d="M 620.5,119.5 C 620.897,118.475 621.563,118.308 622.5,119C 621.906,119.464 621.239,119.631 620.5,119.5 Z"/></g>
<g><path style="opacity:0.004" fill="#000000" d="M 692.5,118.5 C 693.833,119.167 693.833,119.167 692.5,118.5 Z"/></g>
<g><path style="opacity:0.938" fill="#231f20" d="M 958.5,167.5 C 958.5,119.833 958.5,72.1667 958.5,24.5C 958.473,22.8007 957.806,21.4674 956.5,20.5C 956.5,20.1667 956.5,19.8333 956.5,19.5C 957.338,19.1583 957.672,18.4916 957.5,17.5C 957.5,17.1667 957.5,16.8333 957.5,16.5C 958.833,15.8333 958.833,15.1667 957.5,14.5C 957.987,13.5266 958.487,12.5266 959,11.5C 959.832,63.6683 959.665,115.668 958.5,167.5 Z"/></g>
<g><path style="opacity:0.004" fill="#000000" d="M 526.5,141.5 C 525.833,140.167 525.833,140.167 526.5,141.5 Z"/></g>
<g><path style="opacity:0.776" fill="#1f1c1c" d="M 118.5,127.5 C 120.255,128.072 121.922,128.906 123.5,130C 120.904,131.797 121.237,133.131 124.5,134C 124.167,134.333 123.833,134.667 123.5,135C 126.223,139.889 128.89,145.222 131.5,151C 130.906,151.464 130.239,151.631 129.5,151.5C 124.88,144.241 121.214,136.241 118.5,127.5 Z"/></g>
<g><path style="opacity:0.004" fill="#000000" d="M 494.5,164.5 C 493.761,164.631 493.094,164.464 492.5,164C 493.437,163.308 494.103,163.475 494.5,164.5 Z"/></g>
<g><path style="opacity:0.864" fill="#1b1a19" d="M 256.5,160.5 C 256.5,162.167 256.5,163.833 256.5,165.5C 285.502,165.333 314.502,165.5 343.5,166C 344.833,167.667 344.833,169.333 343.5,171C 307.167,171.667 270.833,171.667 234.5,171C 233.577,168.959 233.244,166.792 233.5,164.5C 234.065,166.386 235.065,168.053 236.5,169.5C 270.568,169.45 305.068,169.45 340,169.5C 341.404,169.491 342.57,168.991 343.5,168C 314.5,167.667 285.5,167.333 256.5,167C 255.189,164.726 255.189,162.56 256.5,160.5 Z"/></g>
<g><path style="opacity:0.004" fill="#000000" d="M 137.5,170.5 C 138.833,171.167 138.833,171.167 137.5,170.5 Z"/></g>
<g><path style="opacity:0.004" fill="#000000" d="M 717.5,170.5 C 718.833,171.167 718.833,171.167 717.5,170.5 Z"/></g>
<g><path style="opacity:0.004" fill="#000000" d="M 451.5,172.5 C 450.833,171.167 450.833,171.167 451.5,172.5 Z"/></g>
</svg>
